<svg width="24" height="24" viewBox="0 0 24 24" fill="none" xmlns="http://www.w3.org/2000/svg">
<path d="M7.2 11.2C7.62023 11.2 8.03635 11.2828 8.42459 11.4436C8.81283 11.6044 9.16559 11.8401 9.46274 12.1373C9.75989 12.4344 9.9956 12.7872 10.1564 13.1754C10.3172 13.5637 10.4 13.9798 10.4 14.4C10.4 14.8202 10.3172 15.2363 10.1564 15.6246C9.9956 16.0128 9.75989 16.3656 9.46274 16.6627C9.16559 16.9599 8.81283 17.1956 8.42459 17.3564C8.03635 17.5172 7.62023 17.6 7.2 17.6C6.35131 17.6 5.53737 17.2629 4.93726 16.6627C4.33714 16.0626 4 15.2487 4 14.4C4 13.5513 4.33714 12.7374 4.93726 12.1373C5.53737 11.5371 6.35131 11.2 7.2 11.2ZM14.8 16C15.3304 16 15.8391 16.2107 16.2142 16.5858C16.5893 16.9609 16.8 17.4696 16.8 18C16.8 18.5304 16.5893 19.0391 16.2142 19.4142C15.8391 19.7893 15.3304 20 14.8 20C14.2696 20 13.7609 19.7893 13.3858 19.4142C13.0107 19.0391 12.8 18.5304 12.8 18C12.8 17.4696 13.0107 16.9609 13.3858 16.5858C13.7609 16.2107 14.2696 16 14.8 16ZM15.2 4C16.473 4 17.6939 4.50571 18.5941 5.40589C19.4943 6.30606 20 7.52696 20 8.8C20 10.073 19.4943 11.2939 18.5941 12.1941C17.6939 13.0943 16.473 13.6 15.2 13.6C13.927 13.6 12.7061 13.0943 11.8059 12.1941C10.9057 11.2939 10.4 10.073 10.4 8.8C10.4 7.52696 10.9057 6.30606 11.8059 5.40589C12.7061 4.50571 13.927 4 15.2 4Z" fill="currentColor"/>
</svg>
