<svg width="16" height="16" viewBox="0 0 16 16" fill="none" xmlns="http://www.w3.org/2000/svg">
<path d="M2.66668 2.66663H13.3333C13.687 2.66663 14.0261 2.8071 14.2762 3.05715C14.5262 3.3072 14.6667 3.64634 14.6667 3.99996V12C14.6667 12.3536 14.5262 12.6927 14.2762 12.9428C14.0261 13.1928 13.687 13.3333 13.3333 13.3333H2.66668C2.31305 13.3333 1.97392 13.1928 1.72387 12.9428C1.47382 12.6927 1.33334 12.3536 1.33334 12V3.99996C1.33334 3.64634 1.47382 3.3072 1.72387 3.05715C1.97392 2.8071 2.31305 2.66663 2.66668 2.66663ZM2.66668 3.99996V5.99996H13.3333V3.99996H2.66668ZM2.66668 7.33329V12H13.3333V7.33329H2.66668ZM4.00001 9.33329V10.6666H6.66668V9.33329H4.00001ZM8.00001 9.33329V10.6666H10.6667V9.33329H8.00001Z" fill="currentColor"/>
</svg>
