<svg width="25" height="24" viewBox="0 0 25 24" fill="none" xmlns="http://www.w3.org/2000/svg">
<path d="M19.6271 6H9.1369C7.64937 6 6.44348 7.19624 6.44348 8.67188V19.0781C6.44348 20.5538 7.64937 21.75 9.1369 21.75H19.6271C21.1146 21.75 22.3205 20.5538 22.3205 19.0781V8.67188C22.3205 7.19624 21.1146 6 19.6271 6Z" stroke="white" stroke-width="2" stroke-linejoin="round"/>
<path d="M18.5167 6L18.5403 4.875C18.5384 4.17942 18.2589 3.51289 17.7631 3.02103C17.2673 2.52918 16.5954 2.25198 15.8942 2.25H5.68752C4.88619 2.25235 4.11835 2.56917 3.55171 3.13128C2.98508 3.69338 2.6657 4.45507 2.66333 5.25V15.375C2.66532 16.0706 2.94476 16.7371 3.44058 17.229C3.9364 17.7208 4.60831 17.998 5.3095 18H6.44357" stroke="white" stroke-width="2" stroke-linecap="round" stroke-linejoin="round"/>
</svg>
