<svg width="14" height="12" viewBox="0 0 14 12" fill="none" xmlns="http://www.w3.org/2000/svg">
<g clip-path="url(#clip0)">
<path d="M9.42891 8.08376L10.1789 7.33376C10.2961 7.21658 10.5 7.29861 10.5 7.46736V10.8752C10.5 11.4963 9.99609 12.0002 9.375 12.0002H1.125C0.503906 12.0002 0 11.4963 0 10.8752V2.62517C0 2.00408 0.503906 1.50017 1.125 1.50017H7.53516C7.70156 1.50017 7.78594 1.70173 7.66875 1.82126L6.91875 2.57126C6.88359 2.60642 6.83672 2.62517 6.78516 2.62517H1.125V10.8752H9.375V8.21501C9.375 8.1658 9.39375 8.11892 9.42891 8.08376ZM13.0992 3.35408L6.94453 9.50877L4.82578 9.74314C4.21172 9.81111 3.68906 9.29314 3.75703 8.67439L3.99141 6.55564L10.1461 0.400952C10.6828 -0.135767 11.55 -0.135767 12.0844 0.400952L13.0969 1.41345C13.6336 1.95017 13.6336 2.8197 13.0992 3.35408V3.35408ZM10.7836 4.0783L9.42188 2.71658L5.06719 7.07361L4.89609 8.60408L6.42656 8.43298L10.7836 4.0783ZM12.3023 2.21033L11.2898 1.19783C11.1938 1.10173 11.0367 1.10173 10.943 1.19783L10.2188 1.92205L11.5805 3.28376L12.3047 2.55955C12.3984 2.46111 12.3984 2.30642 12.3023 2.21033V2.21033Z" fill="currentColor"/>
</g>
<defs>
<clipPath id="clip0">
<rect width="13.5" height="12" fill="currentColor"/>
</clipPath>
</defs>
</svg>
