<svg width="32" height="32" viewBox="0 0 32 32" fill="none" xmlns="http://www.w3.org/2000/svg">
<g clip-path="url(#clip0)">
<path d="M32 16.3674C32 15.2798 31.91 14.1863 31.7181 13.1163H16.3209V19.2776H25.1381C24.7723 21.2647 23.5966 23.0226 21.8752 24.1396V28.1374H27.1355C30.2246 25.3507 32 21.2353 32 16.3674Z" fill="#4285F4"/>
<path d="M16.3209 32C20.7235 32 24.4363 30.5831 27.1415 28.1374L21.8811 24.1396C20.4176 25.1155 18.5282 25.6682 16.3269 25.6682C12.0682 25.6682 8.45733 22.8521 7.16173 19.0659H1.73343V23.1872C4.50456 28.5901 10.1488 32 16.3209 32Z" fill="#34A853"/>
<path d="M7.15574 19.0659C6.47196 17.0788 6.47196 14.927 7.15574 12.9399V8.81865H1.73344C-0.58184 13.3397 -0.58184 18.6661 1.73344 23.1872L7.15574 19.0659Z" fill="#FBBC04"/>
<path d="M16.3209 6.33178C18.6481 6.29651 20.8974 7.15486 22.5829 8.73046L27.2435 4.16239C24.2924 1.44624 20.3756 -0.0470533 16.3209 -2.04114e-05C10.1488 -2.04114e-05 4.50456 3.40986 1.73343 8.81865L7.15573 12.9399C8.44533 9.14788 12.0622 6.33178 16.3209 6.33178Z" fill="#EA4335"/>
</g>
<defs>
<clipPath id="clip0">
<rect width="32" height="32" fill="currentColor"/>
</clipPath>
</defs>
</svg>
