<svg width="32" height="32" viewBox="0 0 32 32" fill="none" xmlns="http://www.w3.org/2000/svg">
<path d="M8.33333 9H15C15.3536 9 15.6928 9.14048 15.9428 9.39052C16.1929 9.64057 16.3333 9.97971 16.3333 10.3333C16.3333 10.687 16.1929 11.0261 15.9428 11.2761C15.6928 11.5262 15.3536 11.6667 15 11.6667H8.33333C7.97971 11.6667 7.64057 11.5262 7.39052 11.2761C7.14048 11.0261 7 10.687 7 10.3333C7 9.97971 7.14048 9.64057 7.39052 9.39052C7.64057 9.14048 7.97971 9 8.33333 9ZM17.6667 19.6667H24.3333C24.687 19.6667 25.0261 19.8071 25.2761 20.0572C25.5262 20.3072 25.6667 20.6464 25.6667 21C25.6667 21.3536 25.5262 21.6928 25.2761 21.9428C25.0261 22.1929 24.687 22.3333 24.3333 22.3333H17.6667C17.313 22.3333 16.9739 22.1929 16.7239 21.9428C16.4738 21.6928 16.3333 21.3536 16.3333 21C16.3333 20.6464 16.4738 20.3072 16.7239 20.0572C16.9739 19.8071 17.313 19.6667 17.6667 19.6667ZM8.33333 14.3333H24.3333C24.687 14.3333 25.0261 14.4738 25.2761 14.7239C25.5262 14.9739 25.6667 15.313 25.6667 15.6667C25.6667 16.0203 25.5262 16.3594 25.2761 16.6095C25.0261 16.8595 24.687 17 24.3333 17H8.33333C7.97971 17 7.64057 16.8595 7.39052 16.6095C7.14048 16.3594 7 16.0203 7 15.6667C7 15.313 7.14048 14.9739 7.39052 14.7239C7.64057 14.4738 7.97971 14.3333 8.33333 14.3333Z" fill="currentColor"/>
</svg>
