<svg width="552" height="75" viewBox="0 0 552 75" fill="none" xmlns="http://www.w3.org/2000/svg">
<path d="M22.5739 1.27273H0.272736L24.2784 74H51.2671L75.2727 1.27273H52.9716L38.0568 52.5511H37.4886L22.5739 1.27273Z" fill="black"/>
<path d="M224.891 1.27273H205.147V39.3409H204.578L178.726 1.27273H161.965V74H181.709V35.7898H182.135L208.414 74H224.891V1.27273Z" fill="black"/>
<path d="M262.213 74C284.373 74 298.435 60.3636 298.435 37.6364C298.435 14.9091 284.373 1.27273 261.929 1.27273H234.23V74H262.213ZM253.975 57.2386V18.0341H260.935C272.299 18.0341 278.549 22.4375 278.549 37.6364C278.549 52.8352 272.299 57.2386 261.503 57.2386H253.975Z" fill="black"/>
<path d="M350.752 1.27273V48.4318C350.752 53.8296 346.349 57.5227 338.962 57.5227C331.718 57.5227 327.315 53.8296 327.315 48.4318V1.27273H307.57V49.2841C307.57 65.9034 319.786 74.8523 338.962 74.8523C357.996 74.8523 370.354 65.9034 370.354 49.2841V1.27273H350.752Z" fill="black"/>
<path d="M399.483 1.27273H379.738V74H399.483V1.27273Z" fill="black"/>
<path d="M471.766 1.27273H452.022V39.3409H451.453L425.601 1.27273H408.84V74H428.584V35.7898H429.01L455.289 74H471.766V1.27273Z" fill="black"/>
<path d="M551.56 37.6364C551.56 13.3466 535.935 0.278412 516.191 0.278412C496.304 0.278412 480.821 13.3466 480.821 37.6364C480.821 61.7841 496.304 74.9943 516.191 74.9943C535.935 74.9943 551.56 61.9261 551.56 37.6364ZM531.248 37.6364C531.248 50.7046 525.992 57.8068 516.191 57.8068C506.39 57.8068 501.134 50.7046 501.134 37.6364C501.134 24.5682 506.39 17.4659 516.191 17.4659C525.992 17.4659 531.248 24.5682 531.248 37.6364Z" fill="black"/>
<rect x="85.5" y="3.5" width="66" height="68" rx="2.5" stroke="black" stroke-width="5"/>
<rect x="94.5" y="55.5" width="46" height="8" rx="2.5" stroke="black" stroke-width="5"/>
<rect x="94.5" y="13.5" width="35" height="30" rx="2.5" stroke="black" stroke-width="5"/>
<rect x="138.25" y="23.25" width="4.5" height="8.5" rx="2.25" stroke="black" stroke-width="4.5"/>
<rect x="96" y="21" width="33" height="5" fill="black"/>
<rect x="96" y="31" width="33" height="5" fill="black"/>
</svg>
