
<svg height="512" viewBox="0 0 512 512" width="512" xmlns="http://www.w3.org/2000/svg"><path d="m210.726562 183.140625v26.328125h-138.851562v-138.851562h138.851562v34.210937" fill="#E8E6FF"/><path d="m120.472656 119.214844h41.65625v41.65625h-41.65625zm0 0" fill="#A599FF"/><g fill="#E8E6FF"><path d="m71.875 301.246094h138.851562v138.855468h-138.851562zm0 0"/><path d="m303.199219 70.617188h138.855469v138.851562h-138.855469zm0 0"/><path d="m303.199219 301.246094h138.855469v138.855468h-138.855469zm0 0"/></g><path d="m120.472656 350.59375h41.65625v41.65625h-41.65625zm0 0" fill="#A599FF"/><path d="m351.796875 119.214844h41.65625v41.65625h-41.65625zm0 0" fill="#A599FF"/><path d="m351.796875 350.59375h41.65625v41.65625h-41.65625zm0 0" fill="#A599FF"/><path d="m61.832031 70.617188v138.851562c0 5.546875 4.496094 10.039062 10.039063 10.039062h138.855468c5.542969 0 10.039063-4.492187 10.039063-10.039062v-26.328125c0-5.546875-4.496094-10.042969-10.039063-10.042969-5.546874 0-10.039062 4.496094-10.039062 10.042969v16.289063h-118.773438v-118.773438h118.773438v24.171875c0 5.546875 4.492188 10.042969 10.039062 10.042969 5.542969 0 10.039063-4.496094 10.039063-10.042969v-34.210937c0-5.546876-4.496094-10.039063-10.039063-10.039063h-138.855468c-5.542969 0-10.039063 4.492187-10.039063 10.039063zm0 0"/><path d="m120.472656 109.175781c-5.546875 0-10.039062 4.496094-10.039062 10.039063v41.65625c0 5.542968 4.492187 10.039062 10.039062 10.039062h41.65625c5.542969 0 10.039063-4.496094 10.039063-10.039062v-41.65625c0-5.542969-4.496094-10.039063-10.039063-10.039063zm31.617188 41.65625h-21.578125v-21.578125h21.578125zm0 0"/><path d="m210.726562 291.207031h-138.855468c-5.542969 0-10.039063 4.496094-10.039063 10.039063v138.855468c0 5.542969 4.496094 10.039063 10.039063 10.039063h138.855468c5.542969 0 10.039063-4.496094 10.039063-10.039063v-138.855468c0-5.542969-4.496094-10.039063-10.039063-10.039063zm-10.039062 138.855469h-118.773438v-118.777344h118.773438zm0 0"/><path d="m303.199219 219.507812h138.855469c5.542968 0 10.039062-4.492187 10.039062-10.039062v-138.851562c0-5.546876-4.496094-10.039063-10.039062-10.039063h-138.855469c-5.542969 0-10.039063 4.492187-10.039063 10.039063v138.851562c0 5.546875 4.496094 10.039062 10.039063 10.039062zm10.039062-138.851562h118.773438v118.773438h-118.773438zm0 0"/><path d="m452.09375 440.101562v-138.855468c0-5.542969-4.496094-10.039063-10.039062-10.039063h-138.855469c-5.542969 0-10.039063 4.496094-10.039063 10.039063v138.855468c0 5.542969 4.496094 10.039063 10.039063 10.039063h138.855469c5.542968 0 10.039062-4.496094 10.039062-10.039063zm-20.082031-10.039062h-118.773438v-118.777344h118.773438zm0 0"/><path d="m442.054688 266.003906c5.542968 0 10.039062-4.496094 10.039062-10.039062 0-5.546875-4.496094-10.039063-10.039062-10.039063h-176.023438v-176.421875c0-5.542968-4.496094-10.039062-10.039062-10.039062-5.546876 0-10.042969 4.496094-10.042969 10.039062v176.421875h-133.253907c-5.542968 0-10.039062 4.496094-10.039062 10.039063 0 5.546875 4.496094 10.039062 10.039062 10.039062h133.253907v174.097656c0 5.542969 4.496093 10.039063 10.042969 10.039063 5.542968 0 10.039062-4.496094 10.039062-10.039063v-174.097656zm0 0"/><path d="m120.472656 402.289062h41.65625c5.542969 0 10.039063-4.496093 10.039063-10.039062v-41.65625c0-5.546875-4.496094-10.039062-10.039063-10.039062h-41.65625c-5.546875 0-10.039062 4.492187-10.039062 10.039062v41.65625c0 5.542969 4.492187 10.039062 10.039062 10.039062zm10.039063-41.65625h21.578125v21.578126h-21.578125zm0 0"/><path d="m393.453125 109.175781h-41.65625c-5.542969 0-10.039063 4.496094-10.039063 10.039063v41.65625c0 5.542968 4.496094 10.039062 10.039063 10.039062h41.65625c5.546875 0 10.039063-4.496094 10.039063-10.039062v-41.65625c0-5.542969-4.492188-10.039063-10.039063-10.039063zm-10.039063 41.65625h-21.574218v-21.578125h21.574218zm0 0"/><path d="m351.796875 402.289062h41.65625c5.546875 0 10.039063-4.496093 10.039063-10.039062v-41.65625c0-5.546875-4.492188-10.039062-10.039063-10.039062h-41.65625c-5.542969 0-10.039063 4.492187-10.039063 10.039062v41.65625c0 5.542969 4.496094 10.039062 10.039063 10.039062zm10.042969-41.65625h21.574218v21.578126h-21.574218zm0 0"/><path d="m69.839844 245.96875-.539063.125c-5.398437 1.273438-8.742187 6.679688-7.46875 12.078125 1.089844 4.621094 5.210938 7.738281 9.761719 7.738281.765625 0 1.539062-.089844 2.3125-.273437l.539062-.125c5.398438-1.273438 8.742188-6.679688 7.46875-12.074219-1.269531-5.394531-6.675781-8.738281-12.074218-7.46875zm0 0"/><path d="m208.703125 133.964844-.539063.128906c-5.398437 1.265625-8.746093 6.667969-7.480468 12.066406 1.082031 4.628906 5.207031 7.75 9.765625 7.75.757812 0 1.527343-.085937 2.300781-.269531l.539062-.125c5.398438-1.265625 8.746094-6.671875 7.480469-12.066406-1.265625-5.398438-6.671875-8.75-12.066406-7.484375zm0 0"/><path d="m10.039062 82.234375c5.546876 0 10.039063-4.496094 10.039063-10.039063v-52.117187h50.222656c5.546875 0 10.042969-4.492187 10.042969-10.039063 0-5.542968-4.496094-10.039062-10.042969-10.039062h-60.261719c-5.542968 0-10.039062 4.496094-10.039062 10.039062v62.15625c0 5.542969 4.496094 10.039063 10.039062 10.039063zm0 0"/><path d="m501.960938 0h-60.261719c-5.546875 0-10.042969 4.496094-10.042969 10.039062 0 5.546876 4.496094 10.039063 10.042969 10.039063h50.222656v52.117187c0 5.542969 4.492187 10.039063 10.039063 10.039063 5.542968 0 10.039062-4.496094 10.039062-10.039063v-62.15625c0-5.542968-4.496094-10.039062-10.039062-10.039062zm0 0"/><path d="m70.300781 491.488281h-50.222656v-52.113281c0-5.542969-4.492187-10.039062-10.039063-10.039062-5.542968 0-10.039062 4.496093-10.039062 10.039062v62.15625c0 5.542969 4.496094 10.039062 10.039062 10.039062h60.261719c5.546875 0 10.042969-4.496093 10.042969-10.039062 0-5.546875-4.496094-10.042969-10.042969-10.042969zm0 0"/><path d="m501.960938 429.335938c-5.546876 0-10.039063 4.496093-10.039063 10.039062v52.113281h-50.222656c-5.546875 0-10.042969 4.496094-10.042969 10.042969 0 5.542969 4.496094 10.039062 10.042969 10.039062h60.261719c5.542968 0 10.039062-4.496093 10.039062-10.039062v-62.15625c0-5.542969-4.496094-10.039062-10.039062-10.039062zm0 0"/></svg>
