<svg width="24" height="24" viewBox="0 0 24 24" fill="none" xmlns="http://www.w3.org/2000/svg">
<path d="M19.6 21.6C20.7046 21.6 21.6 20.7046 21.6 19.6V4.40002C21.6 3.29545 20.7046 2.40002 19.6 2.40002H18.8C17.6954 2.40002 16.8 3.29545 16.8 4.40002V19.6C16.8 20.7046 17.6954 21.6 18.8 21.6H19.6ZM12.4 21.6C13.5046 21.6 14.4 20.7046 14.4 19.6V10.4C14.4 9.29545 13.5046 8.40002 12.4 8.40002H11.6C10.4954 8.40002 9.59999 9.29545 9.59999 10.4V19.6C9.59999 20.7046 10.4954 21.6 11.6 21.6H12.4ZM5.2 21.6C6.30456 21.6 7.19999 20.7046 7.19999 19.6V14C7.19999 12.8955 6.30456 12 5.19999 12H4.39999C3.29542 12 2.39999 12.8955 2.39999 14V19.6C2.39999 20.7046 3.29542 21.6 4.39999 21.6H5.2Z" fill="currentColor"/>
</svg>
